<svg width="180" height="180" viewBox="0 0 180 180" fill="none" xmlns="http://www.w3.org/2000/svg">
<mask id="mask0_1210_22756" style="mask-type:luminance" maskUnits="userSpaceOnUse" x="44" y="54" width="92" height="101">
<path d="M44.2568 133.594C44.2769 133.586 44.2971 133.581 44.3146 133.574C55.5327 129.825 65.2175 122.701 72.1499 113.406C72.1625 113.399 72.17 113.386 72.1775 113.374C79.296 103.821 83.5162 91.9849 83.5162 79.1812C83.5162 70.1837 81.43 61.6639 77.7199 54.0767C77.7124 54.0616 77.7024 54.039 77.6948 54.0239L77.7677 54.0516L129.499 74.91L129.577 74.9427C129.59 74.9578 129.597 74.9754 129.602 74.9955C130.191 76.1519 130.736 77.3259 131.239 78.515C134.23 85.5868 135.746 93.1011 135.746 100.847C135.746 108.592 134.23 116.104 131.239 123.173C129.801 126.575 128.021 129.853 125.948 132.917C125.568 133.475 125.181 134.031 124.776 134.579C124.776 134.592 124.764 134.604 124.751 134.617C122.999 137.025 121.054 139.303 118.947 141.41C116.351 144.007 113.493 146.362 110.457 148.416C107.39 150.485 104.112 152.265 100.714 153.703C99.6232 154.165 98.5273 154.588 97.4163 154.98C97.3987 154.988 97.3786 154.993 97.3584 155L97.2805 154.967L44.3348 133.619L44.2568 133.591V133.594Z" fill="white"/>
</mask>
<g mask="url(#mask0_1210_22756)">
<path d="M-8.90841 9.16607L-9.66016 9.48584L100.669 268.942L101.42 268.623L-8.90841 9.16607Z" fill="#171819"/>
<path d="M-6.92452 7.18316L-7.67627 7.50293L102.653 266.959L103.404 266.64L-6.92452 7.18316Z" fill="#171819"/>
<path d="M-4.94064 5.19976L-5.69238 5.51953L104.636 264.976L105.388 264.656L-4.94064 5.19976Z" fill="#171819"/>
<path d="M-2.95675 3.21685L-3.7085 3.53662L106.62 262.993L107.372 262.673L-2.95675 3.21685Z" fill="#171819"/>
<path d="M-0.975305 1.23345L-1.72705 1.55322L108.602 261.01L109.354 260.69L-0.975305 1.23345Z" fill="#171819"/>
<path d="M1.00858 -0.749456L0.256836 -0.429688L110.586 259.027L111.337 258.707L1.00858 -0.749456Z" fill="#171819"/>
<path d="M2.99247 -2.73481L2.24072 -2.41504L112.57 257.041L113.321 256.722L2.99247 -2.73481Z" fill="#171819"/>
<path d="M4.97636 -4.71821L4.22461 -4.39844L114.553 255.058L115.305 254.738L4.97636 -4.71821Z" fill="#171819"/>
<path d="M6.96024 -6.7016L6.2085 -6.38184L116.537 253.075L117.289 252.755L6.96024 -6.7016Z" fill="#171819"/>
<path d="M8.9412 -8.68451L8.18945 -8.36475L118.518 251.092L119.27 250.772L8.9412 -8.68451Z" fill="#171819"/>
<path d="M10.9256 -10.6674L10.1738 -10.3477L120.503 249.109L121.254 248.789L10.9256 -10.6674Z" fill="#171819"/>
<path d="M12.9095 -12.6508L12.1577 -12.3311L122.487 247.125L123.238 246.806L12.9095 -12.6508Z" fill="#171819"/>
<path d="M14.8933 -14.6342L14.1416 -14.3145L124.47 245.142L125.222 244.822L14.8933 -14.6342Z" fill="#171819"/>
<path d="M16.8772 -16.6171L16.1255 -16.2974L126.454 243.159L127.206 242.839L16.8772 -16.6171Z" fill="#171819"/>
<path d="M18.8582 -18.6005L18.1064 -18.2808L128.435 241.176L129.187 240.856L18.8582 -18.6005Z" fill="#171819"/>
<path d="M20.8421 -20.5864L20.0903 -20.2666L130.419 239.19L131.171 238.87L20.8421 -20.5864Z" fill="#171819"/>
<path d="M22.826 -22.5698L22.0742 -22.25L132.403 237.206L133.155 236.887L22.826 -22.5698Z" fill="#171819"/>
<path d="M24.8099 -24.5522L24.0581 -24.2324L134.387 235.224L135.139 234.904L24.8099 -24.5522Z" fill="#171819"/>
<path d="M26.7937 -26.5356L26.042 -26.2158L136.371 233.241L137.123 232.921L26.7937 -26.5356Z" fill="#171819"/>
<path d="M28.7776 -28.5185L28.0259 -28.1987L138.355 231.258L139.106 230.938L28.7776 -28.5185Z" fill="#171819"/>
<path d="M30.7591 -30.5024L30.0073 -30.1826L140.336 229.274L141.088 228.954L30.7591 -30.5024Z" fill="#171819"/>
<path d="M32.743 -32.4853L31.9912 -32.1655L142.32 227.291L143.072 226.971L32.743 -32.4853Z" fill="#171819"/>
<path d="M34.7268 -34.4682L33.9751 -34.1484L144.304 225.308L145.056 224.988L34.7268 -34.4682Z" fill="#171819"/>
<path d="M36.7107 -36.454L35.959 -36.1343L146.288 223.322L147.04 223.002L36.7107 -36.454Z" fill="#171819"/>
<path d="M38.6922 -38.437L37.9404 -38.1172L148.269 221.339L149.021 221.02L38.6922 -38.437Z" fill="#171819"/>
<path d="M40.6761 -40.4204L39.9243 -40.1006L150.253 219.356L151.005 219.036L40.6761 -40.4204Z" fill="#171819"/>
<path d="M42.6599 -42.4033L41.9082 -42.0835L152.237 217.373L152.989 217.053L42.6599 -42.4033Z" fill="#171819"/>
<path d="M44.6438 -44.3867L43.8921 -44.0669L154.221 215.39L154.973 215.07L44.6438 -44.3867Z" fill="#171819"/>
<path d="M46.6277 -46.3696L45.876 -46.0498L156.205 213.407L156.957 213.087L46.6277 -46.3696Z" fill="#171819"/>
<path d="M48.6092 -48.353L47.8574 -48.0332L158.186 211.423L158.938 211.103L48.6092 -48.353Z" fill="#171819"/>
<path d="M50.5931 -50.3359L49.8413 -50.0161L160.17 209.44L160.922 209.121L50.5931 -50.3359Z" fill="#171819"/>
<path d="M52.5769 -52.3193L51.8252 -51.9995L162.154 207.457L162.906 207.137L52.5769 -52.3193Z" fill="#171819"/>
<path d="M54.5608 -54.3046L53.8091 -53.9849L164.138 205.472L164.89 205.152L54.5608 -54.3046Z" fill="#171819"/>
<path d="M56.5447 -56.288L55.793 -55.9683L166.122 203.488L166.874 203.168L56.5447 -56.288Z" fill="#171819"/>
<path d="M58.5262 -58.2714L57.7744 -57.9517L168.103 201.505L168.855 201.185L58.5262 -58.2714Z" fill="#171819"/>
<path d="M60.51 -60.2543L59.7583 -59.9346L170.087 199.522L170.839 199.202L60.51 -60.2543Z" fill="#171819"/>
<path d="M62.4939 -62.2377L61.7422 -61.918L172.071 197.538L172.823 197.219L62.4939 -62.2377Z" fill="#171819"/>
<path d="M64.4773 -64.2211L63.7256 -63.9014L174.054 195.555L174.806 195.235L64.4773 -64.2211Z" fill="#171819"/>
<path d="M66.4612 -66.204L65.7095 -65.8843L176.038 193.572L176.79 193.252L66.4612 -66.204Z" fill="#171819"/>
<path d="M68.4427 -68.187L67.6909 -67.8672L178.02 191.589L178.772 191.27L68.4427 -68.187Z" fill="#171819"/>
<path d="M70.4265 -70.1705L69.6748 -69.8506L179.967 189.622L180.718 189.302L70.4265 -70.1705Z" fill="#171819"/>
</g>
<path d="M102.305 127.862C102.23 127.862 102.152 127.847 102.079 127.819L102.006 127.792L50.2692 106.931L50.1837 106.895C50.0807 106.853 49.9902 106.782 49.9248 106.692C49.8821 106.634 49.8469 106.571 49.8218 106.503C49.2361 105.349 48.6856 104.165 48.188 102.989C45.1641 95.844 43.6309 88.2468 43.6309 80.4132C43.6309 72.5797 45.1641 64.985 48.188 57.8403C49.6408 54.4037 51.4405 51.0877 53.5368 47.988C53.9541 47.3721 54.3311 46.8366 54.688 46.3514C54.7081 46.3162 54.7333 46.281 54.7634 46.2458C56.5229 43.8274 58.4911 41.5246 60.6125 39.4053C63.2317 36.7858 66.1197 34.4025 69.1963 32.3235C72.3006 30.2268 75.616 28.4293 79.047 26.9788C80.1253 26.5212 81.2414 26.0888 82.3649 25.6941C82.385 25.6866 82.4077 25.679 82.4303 25.6715C82.5007 25.6464 82.5736 25.6338 82.649 25.6338C82.7319 25.6338 82.8149 25.6514 82.8928 25.6841L82.9707 25.7168L135.909 47.0604L135.969 47.083C136.213 47.1735 136.376 47.4023 136.381 47.6637C136.387 47.9227 136.228 48.159 135.989 48.257C135.969 48.2646 135.949 48.2721 135.929 48.2796C135.919 48.2847 135.906 48.2872 135.896 48.2922C124.869 51.9777 115.348 58.8735 108.365 68.2406C108.353 68.2582 108.338 68.2733 108.325 68.2908C100.995 78.133 97.1221 89.8205 97.1221 102.089C97.1221 110.787 99.05 119.141 102.856 126.917C102.861 126.924 102.868 126.944 102.878 126.967C102.994 127.198 102.954 127.48 102.778 127.671C102.657 127.804 102.486 127.874 102.315 127.874L102.305 127.862Z" fill="#171819"/>
<path d="M82.644 26.2545L82.7219 26.2872L135.668 47.6358L135.746 47.6634C135.725 47.671 135.705 47.676 135.688 47.6836C124.47 51.4319 114.785 58.5565 107.853 67.8506C107.84 67.8582 107.832 67.8707 107.825 67.8833C100.706 77.4364 96.4862 89.2722 96.4862 102.076C96.4862 111.073 98.5724 119.593 102.282 127.18C102.29 127.195 102.298 127.218 102.308 127.233L102.235 127.205L50.503 106.347L50.4251 106.314C50.4125 106.299 50.405 106.282 50.3999 106.262C49.8118 105.105 49.2663 103.931 48.7636 102.742C45.7725 95.6702 44.2568 88.156 44.2568 80.4104C44.2568 72.6649 45.7725 65.1531 48.7636 58.0839C50.2014 54.6825 51.981 51.4042 54.0547 48.3397C54.4342 47.7816 54.8213 47.226 55.226 46.678C55.226 46.6654 55.2386 46.6528 55.2511 46.6403C57.0031 44.2319 58.9486 41.9542 61.055 39.8475C63.6515 37.2506 66.5094 34.895 69.5458 32.8411C72.6123 30.7721 75.89 28.9922 79.2884 27.5542C80.3792 27.0916 81.4752 26.6693 82.5862 26.2771C82.6012 26.2696 82.6239 26.2645 82.644 26.257M82.644 25C82.5032 25 82.3599 25.0251 82.2242 25.0729C82.1991 25.0804 82.1689 25.0905 82.1362 25.1056C81.0076 25.5053 79.8841 25.9402 78.7982 26.4003C75.3295 27.8659 71.9789 29.6835 68.842 31.8028C65.7327 33.907 62.8119 36.3154 60.1651 38.9626C58.0261 41.102 56.0429 43.4199 54.2658 45.8584C54.2231 45.9087 54.1879 45.959 54.1577 46.0118C53.8033 46.4944 53.4288 47.0274 53.014 47.6358C50.8926 50.7707 49.0753 54.1218 47.6049 57.5987C44.5484 64.8213 43 72.499 43 80.4155C43 88.332 44.5509 96.0146 47.6049 103.237C48.1051 104.421 48.6555 105.608 49.2412 106.764C49.2864 106.875 49.3442 106.978 49.4171 107.074C49.5504 107.252 49.7288 107.39 49.9349 107.478L50.0129 107.511C50.0129 107.511 50.0254 107.516 50.0304 107.519L101.762 128.377C101.762 128.377 101.772 128.382 101.777 128.382L101.85 128.41C101.998 128.467 102.152 128.495 102.305 128.495C102.652 128.495 102.991 128.352 103.235 128.085C103.579 127.706 103.66 127.158 103.441 126.698C103.429 126.67 103.419 126.645 103.406 126.625C99.6483 118.945 97.743 110.684 97.743 102.083C97.743 89.9585 101.566 78.4118 108.803 68.6828C108.823 68.6601 108.843 68.635 108.86 68.6099C115.765 59.3484 125.181 52.5255 136.085 48.8827C136.1 48.8777 136.115 48.8727 136.13 48.8676C136.158 48.8576 136.183 48.85 136.211 48.8375C136.693 48.6439 137.007 48.1738 137 47.6534C136.992 47.133 136.666 46.6704 136.178 46.4919L136.118 46.4693L83.197 25.1332L83.1291 25.1031C82.9733 25.0377 82.8074 25.005 82.6415 25.005L82.644 25Z" fill="white"/>
</svg>
